<svg xmlns="http://www.w3.org/2000/svg" viewBox="0 0 130 130" width="130" height="130" preserveAspectRatio="xMidYMid meet" style="width: 100%; height: 100%; transform: translate3d(0px, 0px, 0px);"><defs><clipPath id="__lottie_element_7390"><rect width="130" height="130" x="0" y="0"></rect></clipPath></defs><g clip-path="url(#__lottie_element_7390)"><g transform="matrix(1,0,0,1,13,17)" opacity="1" style="display: block;"><g opacity="1" transform="matrix(1,0,0,1,51.75,47.974998474121094)"><path fill="rgb(5,29,39)" fill-opacity="1" d=" M-0.27000001072883606,-47.724998474121094 C-0.27000001072883606,-47.724998474121094 -31.007999420166016,-44.4900016784668 -31.007999420166016,-44.4900016784668 C-31.007999420166016,-44.4900016784668 -51.5,-12.67300033569336 -51.5,-12.67300033569336 C-51.5,-12.67300033569336 -0.27000001072883606,47.724998474121094 -0.27000001072883606,47.724998474121094 C-0.27000001072883606,47.724998474121094 51.5,-12.67300033569336 51.5,-12.67300033569336 C51.5,-12.67300033569336 30.468000411987305,-44.4900016784668 30.468000411987305,-44.4900016784668 C30.468000411987305,-44.4900016784668 -0.27000001072883606,-47.724998474121094 -0.27000001072883606,-47.724998474121094z"></path></g><g opacity="1" transform="matrix(1,0,0,1,37.78799819946289,20.531999588012695)"><path fill="rgb(128,171,233)" fill-opacity="1" d=" M13.961000442504883,-14.902000427246094 C13.961000442504883,-14.902000427246094 -12.116000175476074,-12.107000350952148 -12.116000175476074,-12.107000350952148 C-13.961000442504883,-3.3559999465942383 -13.791999816894531,5.670000076293945 -12.116000175476074,14.902000427246094 C-1.7050000429153442,5.382999897003174 7.331999778747559,-4.468999862670898 13.961000442504883,-14.902000427246094z"></path></g><g opacity="1" transform="matrix(1,0,0,1,45.45399856567383,77.62300109863281)"><path fill="rgb(252,28,67)" fill-opacity="1" d=" M-2.7309999465942383,-8.699000358581543 C-4.980999946594238,-9.03499984741211 -6.295000076293945,-8.206999778747559 -5.785999774932861,-5.105000019073486 C-5.785999774932861,-5.105000019073486 6.296000003814697,9.03499984741211 6.296000003814697,9.03499984741211 C3.697999954223633,1.5080000162124634 1.0889999866485596,-5.980999946594238 -2.7309999465942383,-8.699000358581543z"></path></g><g opacity="1" transform="matrix(1,0,0,1,74.50800323486328,34.33000183105469)"><path fill="rgb(252,1,69)" fill-opacity="1" d=" M3.319000005722046,1.1039999723434448 C2.9679999351501465,-0.46799999475479126 1.8819999694824219,-1.7640000581741333 -0.04800000041723251,-2.74399995803833 C-0.04800000041723251,-2.74399995803833 -3.319000005722046,1.1039999723434448 -3.319000005722046,1.1039999723434448 C-1.49399995803833,2.74399995803833 0.7440000176429749,2.6389999389648438 3.319000005722046,1.1039999723434448z"></path></g><g opacity="1" transform="matrix(1,0,0,1,73.63600158691406,61.04499816894531)"><path fill="rgb(226,2,71)" fill-opacity="1" d=" M-21.886999130249023,25.61199951171875 C-21.886999130249023,25.61199951171875 21.886999130249023,-25.61199951171875 21.886999130249023,-25.61199951171875 C21.886999130249023,-25.61199951171875 15.939000129699707,-28.170000076293945 11.61400032043457,-28.136999130249023 C8.10099983215332,-28.110000610351562 4.190999984741211,-25.61199951171875 4.190999984741211,-25.61199951171875 C-6.3420000076293945,-11.359999656677246 -14.682000160217285,6.256999969482422 -21.886999130249023,25.61199951171875z"></path></g><g opacity="1" transform="matrix(1,0,0,1,60.27399826049805,61.04600143432617)"><path fill="rgb(252,1,69)" fill-opacity="1" d=" M10.914999961853027,-25.61199951171875 C-8.399999618530273,-17.009000778198242 -17.31999969482422,-5.697000026702881 -17.552000045776367,7.879000186920166 C-17.552000045776367,7.879000186920166 -8.524999618530273,25.61199951171875 -8.524999618530273,25.61199951171875 C-8.524999618530273,25.61199951171875 17.55299949645996,-25.61199951171875 17.55299949645996,-25.61199951171875 C17.55299949645996,-25.61199951171875 10.914999961853027,-25.61199951171875 10.914999961853027,-25.61199951171875z"></path></g><g opacity="1" transform="matrix(1,0,0,1,30.145000457763672,38.125999450683594)"><path fill="rgb(1,98,210)" fill-opacity="1" d=" M-4.4730000495910645,-2.691999912261963 C-5.6479997634887695,0.42500001192092896 -4.039999961853027,2.6389999389648438 -0.8870000243186951,4.35099983215332 C3.003999948501587,3.1080000400543213 5.6479997634887695,1.1399999856948853 5.099999904632568,-2.691999912261963 C1.8300000429153442,-4.081999778747559 -1.3769999742507935,-4.35099983215332 -4.4730000495910645,-2.691999912261963z"></path></g><g opacity="1" transform="matrix(1,0,0,1,50.222999572753906,50.75699996948242)"><path fill="rgb(126,70,252)" fill-opacity="1" d=" M-14.979000091552734,-15.322999954223633 C-14.979000091552734,-15.322999954223633 -20.96500015258789,-8.279999732971191 -20.96500015258789,-8.279999732971191 C-19.32699966430664,0.12300000339746475 -13.880000114440918,9.07800006866455 -7.500999927520752,18.167999267578125 C-7.500999927520752,18.167999267578125 20.96500015258789,-15.322999954223633 20.96500015258789,-15.322999954223633 C9.581000328063965,-17.874000549316406 -2.3320000171661377,-18.167999267578125 -14.979000091552734,-15.322999954223633z"></path></g><g opacity="1" transform="matrix(1,0,0,1,40.95000076293945,20.531999588012695)"><path fill="rgb(1,108,217)" fill-opacity="1" d=" M-5.704999923706055,14.902000427246094 C4.73799991607666,8.576000213623047 13.303000450134277,1.2130000591278076 15.277000427246094,-9.78499984741211 C15.277000427246094,-9.78499984741211 10.800000190734863,-14.902000427246094 10.800000190734863,-14.902000427246094 C10.800000190734863,-14.902000427246094 -15.277000427246094,14.902000427246094 -15.277000427246094,14.902000427246094 C-15.277000427246094,14.902000427246094 -5.704999923706055,14.902000427246094 -5.704999923706055,14.902000427246094z"></path></g><g opacity="1" transform="matrix(1,0,0,1,54.85200119018555,23.090999603271484)"><path fill="rgb(134,75,252)" fill-opacity="1" d=" M19.60700035095215,8.494000434875488 C14.947999954223633,-0.453000009059906 8.967000007629395,-7.535999774932861 1.375,-12.342000007629395 C1.375,-12.342000007629395 -19.60700035095215,12.342000007629395 -19.60700035095215,12.342000007629395 C-19.60700035095215,12.342000007629395 16.336999893188477,12.342000007629395 16.336999893188477,12.342000007629395 C16.336999893188477,12.342000007629395 19.60700035095215,8.494000434875488 19.60700035095215,8.494000434875488z"></path></g><g opacity="1" transform="matrix(1,0,0,1,86.25399780273438,27.350000381469727)"><path fill="rgb(233,0,70)" fill-opacity="1" d=" M-8.427000045776367,8.083000183105469 C-8.427000045776367,8.083000183105469 9.269000053405762,8.083000183105469 9.269000053405762,8.083000183105469 C9.269000053405762,8.083000183105469 -1.3229999542236328,-8.083000183105469 -1.3229999542236328,-8.083000183105469 C-4.710999965667725,-6.425000190734863 -7.451000213623047,-4.052000045776367 -8.427000045776367,0.27300000190734863 C-9.130000114440918,3.0869998931884766 -9.269000053405762,5.730999946594238 -8.427000045776367,8.083000183105469z"></path></g><g opacity="1" transform="matrix(1,0,0,1,75.87300109863281,31.44700050354004)"><path fill="rgb(248,2,70)" fill-opacity="1" d=" M1.9539999961853027,-3.822999954223633 C-0.5839999914169312,-3.98799991607666 -1.9529999494552612,-2.924999952316284 -1.4129999876022339,0.13899999856948853 C-1.4129999876022339,0.13899999856948853 1.9539999961853027,3.98799991607666 1.9539999961853027,3.98799991607666 C1.9539999961853027,3.98799991607666 1.9539999961853027,-3.822999954223633 1.9539999961853027,-3.822999954223633z"></path></g><g opacity="1" transform="matrix(1,0,0,1,80.60900115966797,18.024999618530273)"><path fill="rgb(116,65,252)" fill-opacity="1" d=" M4.322000026702881,1.2419999837875366 C4.322000026702881,1.2419999837875366 -2.7829999923706055,-9.600000381469727 -2.7829999923706055,-9.600000381469727 C-4.25600004196167,-2.878999948501587 -4.322000026702881,3.5360000133514404 -2.7829999923706055,9.600000381469727 C-2.7829999923706055,9.600000381469727 4.322000026702881,1.2419999837875366 4.322000026702881,1.2419999837875366z"></path></g><g opacity="1" transform="matrix(1,0,0,1,56.391998291015625,8.234000205993652)"><path fill="rgb(0,102,211)" fill-opacity="1" d=" M3.447999954223633,-1.7359999418258667 C3.447999954223633,-1.7359999418258667 -4.64300012588501,-2.6029999256134033 -4.64300012588501,-2.6029999256134033 C-4.64300012588501,-2.6029999256134033 -0.16500000655651093,2.5139999389648438 -0.16500000655651093,2.5139999389648438 C3.1570000648498535,2.6029999256134033 4.64300012588501,1.3869999647140503 3.447999954223633,-1.7359999418258667z"></path></g><g opacity="1" transform="matrix(1,0,0,1,67.0270004272461,19.041000366210938)"><path fill="rgb(126,70,252)" fill-opacity="1" d=" M7.433000087738037,12.543999671936035 C7.433000087738037,12.543999671936035 10.798999786376953,8.583000183105469 10.798999786376953,8.583000183105469 C10.798999786376953,8.583000183105469 10.798999786376953,-10.616999626159668 10.798999786376953,-10.616999626159668 C10.798999786376953,-10.616999626159668 -7.186999797821045,-12.543999671936035 -7.186999797821045,-12.543999671936035 C-7.186999797821045,-12.543999671936035 -10.798999786376953,-8.293000221252441 -10.798999786376953,-8.293000221252441 C-10.798999786376953,-8.293000221252441 7.433000087738037,12.543999671936035 7.433000087738037,12.543999671936035z"></path></g><g opacity="1" transform="matrix(1,0,0,1,18.915000915527344,42.178001403808594)"><path fill="rgb(55,133,233)" fill-opacity="1" d=" M6.756999969482422,-6.74399995803833 C1.0169999599456787,-9.253999710083008 -4.9019999504089355,-8.932000160217285 -10.939000129699707,-6.74399995803833 C-10.939000129699707,-6.74399995803833 2.7320001125335693,9.253999710083008 2.7320001125335693,9.253999710083008 C7.138999938964844,7.927999973297119 10.939000129699707,6.063000202178955 10.342000007629395,0.29899999499320984 C10.342000007629395,0.29899999499320984 6.756999969482422,-6.74399995803833 6.756999969482422,-6.74399995803833z"></path></g><g opacity="1" transform="matrix(1,0,0,1,32.185001373291016,57.49800109863281)"><path fill="rgb(175,103,252)" fill-opacity="1" d=" M-2.927999973297119,-15.020999908447266 C-2.927999973297119,-15.020999908447266 -10.538000106811523,-6.065999984741211 -10.538000106811523,-6.065999984741211 C-10.538000106811523,-6.065999984741211 7.48199987411499,15.020999908447266 7.48199987411499,15.020999908447266 C7.48199987411499,15.020999908447266 10.538000106811523,11.427000045776367 10.538000106811523,11.427000045776367 C10.538000106811523,11.427000045776367 -2.927999973297119,-15.020999908447266 -2.927999973297119,-15.020999908447266z"></path></g><g opacity="1" transform="matrix(1,0,0,1,16.823999404907227,21.929000854492188)"><path fill="rgb(90,149,234)" fill-opacity="1" d=" M8.847999572753906,-13.505000114440918 C8.847999572753906,-13.505000114440918 -8.847999572753906,13.505000114440918 -8.847999572753906,13.505000114440918 C-8.847999572753906,13.505000114440918 8.847999572753906,13.505000114440918 8.847999572753906,13.505000114440918 C8.847999572753906,13.505000114440918 8.847999572753906,-13.505000114440918 8.847999572753906,-13.505000114440918z"></path></g></g><g style="display: none;"><g><path></path></g></g><g style="display: none;"><g><path></path></g></g><g style="display: none;"><g><path></path></g></g><g style="display: none;"><g></g><g><path></path></g></g><g style="display: none;"><g><path></path></g></g><g style="display: none;"><g><path></path></g></g><g style="display: none;"><g><path></path></g></g><g style="display: none;"><g><path></path></g></g><g style="display: none;"><g><path></path></g></g></g></svg>