<svg xmlns="http://www.w3.org/2000/svg" viewBox="0 0 130 130" width="130" height="130" preserveAspectRatio="xMidYMid meet" style="width: 100%; height: 100%; transform: translate3d(0px, 0px, 0px);"><defs><clipPath id="__lottie_element_7306"><rect width="130" height="130" x="0" y="0"></rect></clipPath></defs><g clip-path="url(#__lottie_element_7306)"><g transform="matrix(1,0,0,1,13,17)" opacity="1" style="display: block;"><g opacity="1" transform="matrix(1,0,0,1,51.75,47.974998474121094)"><path fill="rgb(5,29,39)" fill-opacity="1" d=" M-0.27000001072883606,-47.724998474121094 C-0.27000001072883606,-47.724998474121094 -31.007999420166016,-44.4900016784668 -31.007999420166016,-44.4900016784668 C-31.007999420166016,-44.4900016784668 -51.5,-12.67300033569336 -51.5,-12.67300033569336 C-51.5,-12.67300033569336 -0.27000001072883606,47.724998474121094 -0.27000001072883606,47.724998474121094 C-0.27000001072883606,47.724998474121094 51.5,-12.67300033569336 51.5,-12.67300033569336 C51.5,-12.67300033569336 30.468000411987305,-44.4900016784668 30.468000411987305,-44.4900016784668 C30.468000411987305,-44.4900016784668 -0.27000001072883606,-47.724998474121094 -0.27000001072883606,-47.724998474121094z"></path></g><g opacity="1" transform="matrix(1,0,0,1,51.6150016784668,23.711999893188477)"><path fill="rgb(252,151,3)" fill-opacity="1" d=" M0.0010000000474974513,-18.08099937438965 C10.670000076293945,-12.072999954223633 18.934999465942383,-1.2910000085830688 26.07699966430664,11.722000122070312 C7.874000072479248,17.562999725341797 -9.583000183105469,18.08099937438965 -26.07699966430664,11.722000122070312 C-22.013999938964844,-2.003000020980835 -13.793000221252441,-12.324000358581543 0.0010000000474974513,-18.08099937438965z"></path></g><g opacity="1" transform="matrix(1,0,0,1,73.50199890136719,58.777000427246094)"><path fill="rgb(252,97,2)" fill-opacity="1" d=" M21.88599967956543,-23.3439998626709 C21.88599967956543,-23.3439998626709 -21.88599967956543,27.8799991607666 -21.88599967956543,27.8799991607666 C-18.759000778198242,7.925000190734863 -12.13599967956543,-10.222000122070312 4.190999984741211,-23.3439998626709 C8.633999824523926,-27.881000518798828 15.095000267028809,-26.125999450683594 21.88599967956543,-23.3439998626709z"></path></g><g opacity="1" transform="matrix(1,0,0,1,85.28500366210938,21.929000854492188)"><path fill="rgb(252,112,0)" fill-opacity="1" d=" M-7.5920000076293945,-13.505000114440918 C-9.793999671936035,-4.489999771118164 -10.10200023651123,4.515999794006348 -7.5920000076293945,13.505000114440918 C-7.5920000076293945,13.505000114440918 10.102999687194824,13.505000114440918 10.102999687194824,13.505000114440918 C10.102999687194824,13.505000114440918 -7.5920000076293945,-13.505000114440918 -7.5920000076293945,-13.505000114440918z"></path></g><g opacity="1" transform="matrix(1,0,0,1,64.65399932861328,20.531999588012695)"><path fill="rgb(252,128,1)" fill-opacity="1" d=" M-13.038000106811523,-14.902000427246094 C-13.038000106811523,-14.902000427246094 13.038000106811523,-12.107000350952148 13.038000106811523,-12.107000350952148 C13.038000106811523,-12.107000350952148 13.038000106811523,14.902000427246094 13.038000106811523,14.902000427246094 C13.038000106811523,14.902000427246094 -13.038000106811523,-14.902000427246094 -13.038000106811523,-14.902000427246094z"></path></g><g opacity="1" transform="matrix(1,0,0,1,29.729000091552734,59.05400085449219)"><path fill="rgb(252,169,2)" fill-opacity="1" d=" M-21.886999130249023,-23.6200008392334 C-21.886999130249023,-23.6200008392334 21.886999130249023,27.604000091552734 21.886999130249023,27.604000091552734 C17.77400016784668,7.1539998054504395 10.91100025177002,-11.267999649047852 -4.190999984741211,-23.6200008392334 C-9.503999710083008,-27.60300064086914 -15.501999855041504,-26.933000564575195 -21.886999130249023,-23.6200008392334z"></path></g><g opacity="1" transform="matrix(1,0,0,1,18.35700035095215,21.929000854492188)"><path fill="rgb(252,181,2)" fill-opacity="1" d=" M7.179999828338623,-13.505000114440918 C10.321000099182129,-5.0229997634887695 10.513999938964844,3.9489998817443848 7.179999828338623,13.505000114440918 C7.179999828338623,13.505000114440918 -10.513999938964844,13.505000114440918 -10.513999938964844,13.505000114440918 C-10.513999938964844,13.505000114440918 7.179999828338623,-13.505000114440918 7.179999828338623,-13.505000114440918z"></path></g><g opacity="1" transform="matrix(1,0,0,1,38.57699966430664,20.531999588012695)"><path fill="rgb(252,210,138)" fill-opacity="1" d=" M-13.038999557495117,14.902000427246094 C-13.038999557495117,14.902000427246094 13.038999557495117,-14.902000427246094 13.038999557495117,-14.902000427246094 C13.038999557495117,-14.902000427246094 -13.038999557495117,-12.107000350952148 -13.038999557495117,-12.107000350952148 C-13.038999557495117,-12.107000350952148 -13.038999557495117,14.902000427246094 -13.038999557495117,14.902000427246094z"></path></g><g opacity="1" transform="matrix(1,0,0,1,51.6150016784668,61.04499816894531)"><path fill="rgb(252,136,1)" fill-opacity="1" d=" M0.0010000000474974513,25.61199951171875 C0.0010000000474974513,25.61199951171875 26.07699966430664,-25.61199951171875 26.07699966430664,-25.61199951171875 C26.07699966430664,-25.61199951171875 -26.07699966430664,-25.61199951171875 -26.07699966430664,-25.61199951171875 C-26.07699966430664,-25.61199951171875 0.0010000000474974513,25.61199951171875 0.0010000000474974513,25.61199951171875z"></path></g></g><g style="display: none;"><g><path></path></g></g><g style="display: none;"><g><path></path></g></g><g style="display: none;"><g><path></path></g></g><g style="display: none;"><g><path></path></g></g><g style="display: none;"><g><path></path></g></g></g></svg>