<svg xmlns="http://www.w3.org/2000/svg" viewBox="0 0 130 130" width="130" height="130" preserveAspectRatio="xMidYMid meet" style="width: 100%; height: 100%; transform: translate3d(0px, 0px, 0px);"><defs><clipPath id="__lottie_element_10322"><rect width="130" height="130" x="0" y="0"></rect></clipPath></defs><g clip-path="url(#__lottie_element_10322)"><g transform="matrix(1,0,0,1,13,17)" opacity="1" style="display: block;"><g opacity="1" transform="matrix(1,0,0,1,51.75,47.974998474121094)"><path fill="rgb(5,29,39)" fill-opacity="1" d=" M-0.27000001072883606,-47.724998474121094 C-0.27000001072883606,-47.724998474121094 -31.007999420166016,-44.4900016784668 -31.007999420166016,-44.4900016784668 C-31.007999420166016,-44.4900016784668 -51.5,-12.67300033569336 -51.5,-12.67300033569336 C-51.5,-12.67300033569336 -0.27000001072883606,47.724998474121094 -0.27000001072883606,47.724998474121094 C-0.27000001072883606,47.724998474121094 51.5,-12.67300033569336 51.5,-12.67300033569336 C51.5,-12.67300033569336 30.468000411987305,-44.4900016784668 30.468000411987305,-44.4900016784668 C30.468000411987305,-44.4900016784668 -0.27000001072883606,-47.724998474121094 -0.27000001072883606,-47.724998474121094z"></path></g><g opacity="1" transform="matrix(1,0,0,1,51.6150016784668,23.711999893188477)"><path fill="rgb(145,92,252)" fill-opacity="1" d=" M0.0010000000474974513,-18.08099937438965 C10.670000076293945,-12.072999954223633 18.934999465942383,-1.2910000085830688 26.07699966430664,11.722000122070312 C7.874000072479248,17.562999725341797 -9.583000183105469,18.08099937438965 -26.07699966430664,11.722000122070312 C-22.013999938964844,-2.003000020980835 -13.793000221252441,-12.324000358581543 0.0010000000474974513,-18.08099937438965z"></path></g><g opacity="1" transform="matrix(1,0,0,1,73.50199890136719,58.292999267578125)"><path fill="rgb(105,57,252)" fill-opacity="1" d=" M21.88599967956543,-22.858999252319336 C21.88599967956543,-22.858999252319336 -21.88599967956543,28.364999771118164 -21.88599967956543,28.364999771118164 C-18.759000778198242,8.40999984741211 -12.13599967956543,-9.737000465393066 4.190999984741211,-22.858999252319336 C9.67199993133545,-28.364999771118164 15.621999740600586,-27.677000045776367 21.88599967956543,-22.858999252319336z"></path></g><g opacity="1" transform="matrix(1,0,0,1,85.28500366210938,21.929000854492188)"><path fill="rgb(116,65,252)" fill-opacity="1" d=" M-7.5920000076293945,-13.505000114440918 C-9.793999671936035,-4.489999771118164 -10.10200023651123,4.515999794006348 -7.5920000076293945,13.505000114440918 C-7.5920000076293945,13.505000114440918 10.102999687194824,13.505000114440918 10.102999687194824,13.505000114440918 C10.102999687194824,13.505000114440918 -7.5920000076293945,-13.505000114440918 -7.5920000076293945,-13.505000114440918z"></path></g><g opacity="1" transform="matrix(1,0,0,1,64.65399932861328,20.531999588012695)"><path fill="rgb(126,70,252)" fill-opacity="1" d=" M-13.038000106811523,-14.902000427246094 C-13.038000106811523,-14.902000427246094 13.038000106811523,-12.107000350952148 13.038000106811523,-12.107000350952148 C13.038000106811523,-12.107000350952148 13.038000106811523,14.902000427246094 13.038000106811523,14.902000427246094 C13.038000106811523,14.902000427246094 -13.038000106811523,-14.902000427246094 -13.038000106811523,-14.902000427246094z"></path></g><g opacity="1" transform="matrix(1,0,0,1,29.729000091552734,59.327999114990234)"><path fill="rgb(175,103,252)" fill-opacity="1" d=" M-21.886999130249023,-23.895000457763672 C-21.886999130249023,-23.895000457763672 21.886999130249023,27.32900047302246 21.886999130249023,27.32900047302246 C17.77400016784668,6.879000186920166 10.90999984741211,-11.543000221252441 -4.190999984741211,-23.895000457763672 C-9.559000015258789,-27.329999923706055 -15.538999557495117,-26.79800033569336 -21.886999130249023,-23.895000457763672z"></path></g><g opacity="1" transform="matrix(1,0,0,1,18.35700035095215,21.929000854492188)"><path fill="rgb(223,112,252)" fill-opacity="1" d=" M7.179999828338623,-13.505000114440918 C10.321000099182129,-5.0229997634887695 10.513999938964844,3.9489998817443848 7.179999828338623,13.505000114440918 C7.179999828338623,13.505000114440918 -10.513999938964844,13.505000114440918 -10.513999938964844,13.505000114440918 C-10.513999938964844,13.505000114440918 7.179999828338623,-13.505000114440918 7.179999828338623,-13.505000114440918z"></path></g><g opacity="1" transform="matrix(1,0,0,1,38.57699966430664,20.531999588012695)"><path fill="rgb(214,153,252)" fill-opacity="1" d=" M-13.038999557495117,14.902000427246094 C-13.038999557495117,14.902000427246094 13.038999557495117,-14.902000427246094 13.038999557495117,-14.902000427246094 C13.038999557495117,-14.902000427246094 -13.038999557495117,-12.107000350952148 -13.038999557495117,-12.107000350952148 C-13.038999557495117,-12.107000350952148 -13.038999557495117,14.902000427246094 -13.038999557495117,14.902000427246094z"></path></g><g opacity="1" transform="matrix(1,0,0,1,51.6150016784668,61.04499816894531)"><path fill="rgb(126,70,252)" fill-opacity="1" d=" M0.0010000000474974513,25.61199951171875 C0.0010000000474974513,25.61199951171875 26.07699966430664,-25.61199951171875 26.07699966430664,-25.61199951171875 C26.07699966430664,-25.61199951171875 -26.07699966430664,-25.61199951171875 -26.07699966430664,-25.61199951171875 C-26.07699966430664,-25.61199951171875 0.0010000000474974513,25.61199951171875 0.0010000000474974513,25.61199951171875z"></path></g></g><g transform="matrix(0.2380482405424118,0,0,0.2380482405424118,65.0951156616211,65.0951156616211)" opacity="1" style="display: none;"><g opacity="1" transform="matrix(1,0,0,1,0,0)"><path fill="rgb(234,201,255)" fill-opacity="1" d=" M-2.25,-212 C-2.25,-212 -85.37999725341797,-202.92300415039062 -85.37999725341797,-202.92300415039062 C-85.37999725341797,-202.92300415039062 -132.75,-148.375 -132.75,-148.375 C-132.75,-148.375 -132.5,-62.75 -132.5,-62.75 C-132.5,-62.75 -2.25,-212 -2.25,-212z"></path></g></g><g transform="matrix(0.20475414395332336,0,0,0.20475414395332336,65.01188659667969,65.01188659667969)" opacity="1" style="display: none;"><g opacity="1" transform="matrix(1,0,0,1,0,0)"><path fill="rgb(209,154,242)" fill-opacity="1" d=" M119.81199645996094,-72.25 C119.81199645996094,-72.25 112.25,-63 112.25,-63 C112.25,-63 128.25,-63 128.25,-63 C128.25,-63 126.14700317382812,-65.30599975585938 126.14700317382812,-65.30599975585938 C126.14700317382812,-65.30599975585938 119.81199645996094,-72.25 119.81199645996094,-72.25z"></path></g></g><g transform="matrix(0.20016026496887207,0,0,0.20016026496887207,65.00040435791016,65.00040435791016)" opacity="1" style="display: none;"><g opacity="1" transform="matrix(1,0,0,1,0,0)"><path fill="rgb(193,135,255)" fill-opacity="1" d=" M-39.25,120.31199645996094 C-39.25,120.31199645996094 -91.21900177001953,88.81199645996094 -91.21900177001953,88.81199645996094 C-91.21900177001953,88.81199645996094 -91.23699951171875,88.85600280761719 -91.23699951171875,88.85600280761719 C-91.23699951171875,88.85600280761719 -2,193 -2,193 C-2,193 -39.25,120.31199645996094 -39.25,120.31199645996094z"></path></g></g><g transform="matrix(-0.011485044844448566,-0.1721552461385727,0.1721552461385727,-0.011485044844448566,47.5057373046875,39.971221923828125)" opacity="0.01985548292865005" style="display: none;"><g opacity="1" transform="matrix(1,0,0,1,0,0)"><path fill="rgb(255,255,255)" fill-opacity="1" d=" M59.625,-53.375 C59.625,-53.375 59.99300003051758,-47.981998443603516 61.61399841308594,-46.097999572753906 C63.07600021362305,-44.39899826049805 68.875,-44.25 68.875,-44.25 C68.875,-44.25 63.46099853515625,-43.130001068115234 61.941001892089844,-41.69499969482422 C60.46099853515625,-40.297000885009766 60.25,-34.75 60.25,-34.75 C60.25,-34.75 60.01900100708008,-40.20800018310547 58.090999603271484,-41.624000549316406 C55.93600082397461,-43.20800018310547 50.625,-43.75 50.625,-43.75 C50.625,-43.75 55.30400085449219,-43.499000549316406 57.63399887084961,-45.48899841308594 C59.78300094604492,-47.32500076293945 59.625,-53.375 59.625,-53.375z"></path></g></g><g transform="matrix(-0.02397807314991951,-0.3429027199745178,0.3429027199745178,-0.02397807314991951,106.77567291259766,71.42291259765625)" opacity="4.298031528549018e-7" style="display: block;"><g opacity="1" transform="matrix(1,0,0,1,0,0)"><path fill="rgb(255,255,255)" fill-opacity="1" d=" M59.625,-53.375 C59.625,-53.375 59.99300003051758,-47.981998443603516 61.61399841308594,-46.097999572753906 C63.07600021362305,-44.39899826049805 68.875,-44.25 68.875,-44.25 C68.875,-44.25 63.46099853515625,-43.130001068115234 61.941001892089844,-41.69499969482422 C60.46099853515625,-40.297000885009766 60.25,-34.75 60.25,-34.75 C60.25,-34.75 60.01900100708008,-40.20800018310547 58.090999603271484,-41.624000549316406 C55.93600082397461,-43.20800018310547 50.625,-43.75 50.625,-43.75 C50.625,-43.75 55.30400085449219,-43.499000549316406 57.63399887084961,-45.48899841308594 C59.78300094604492,-47.32500076293945 59.625,-53.375 59.625,-53.375z"></path></g></g></g></svg>